<?xml version="1.0" standalone="no"?>
<!DOCTYPE svg PUBLIC "-//W3C//DTD SVG 20010904//EN"
 "http://www.w3.org/TR/2001/REC-SVG-20010904/DTD/svg10.dtd">
<svg version="1.0" xmlns="http://www.w3.org/2000/svg"
 width="512.000000pt" height="512.000000pt" viewBox="0 0 512.000000 512.000000"
 preserveAspectRatio="xMidYMid meet">

<g transform="translate(0.000000,512.000000) scale(0.100000,-0.100000)"
fill="#000000" stroke="none">
<path d="M1474 4330 c-266 -39 -463 -265 -464 -532 l0 -58 74 0 73 0 5 83 c10
150 89 265 226 330 l67 32 1105 0 1105 0 67 -32 c84 -39 155 -109 194 -188 29
-59 29 -63 32 -252 l4 -193 -510 0 c-482 0 -510 -1 -526 -18 -9 -11 -31 -83
-49 -160 l-32 -142 -58 0 c-48 0 -62 -4 -82 -25 -32 -31 -32 -69 0 -100 l24
-25 806 0 805 0 0 -95 0 -95 -805 0 -806 0 -24 -25 c-59 -58 -16 -118 90 -127
l30 -3 20 -208 21 -207 -303 0 -303 0 0 27 c0 34 29 340 35 369 4 18 14 22 57
26 86 9 88 15 88 243 0 234 -1 237 -101 245 l-63 5 -32 138 c-18 77 -40 147
-50 158 -16 18 -40 19 -656 19 -610 0 -639 -1 -657 -19 -12 -12 -30 -70 -51
-160 l-33 -141 -58 0 c-73 0 -103 -21 -103 -75 0 -27 6 -43 23 -56 22 -18 57
-19 827 -19 l804 0 0 -95 0 -95 -801 0 c-545 0 -807 -3 -820 -11 -29 -15 -42
-57 -29 -90 14 -32 48 -49 100 -49 32 0 40 -4 40 -19 0 -21 27 -296 36 -358
l5 -43 -69 0 c-55 0 -75 -4 -96 -21 l-26 -20 0 -713 c0 -712 0 -713 21 -732
21 -19 67 -19 1909 -19 1842 0 1888 0 1909 19 21 19 21 20 21 732 l0 713 -26
20 c-21 17 -41 21 -96 21 -68 0 -70 1 -65 23 3 12 14 106 23 210 l18 187 38 0
c49 0 83 16 97 47 7 15 11 95 11 209 0 183 0 185 -25 209 -20 21 -34 25 -83
25 l-58 0 -33 142 c-18 79 -39 151 -48 160 -12 13 -31 18 -75 18 l-58 0 0 168
c0 110 -5 188 -15 228 -52 223 -225 381 -453 414 -79 11 -2091 11 -2168 0z
m632 -1042 l22 -88 -589 0 c-324 0 -589 2 -589 4 0 7 30 138 36 159 5 16 38
17 552 15 l546 -3 22 -87z m2045 12 c10 -41 18 -81 19 -87 0 -10 -123 -13
-585 -13 -461 0 -585 3 -585 13 0 13 27 134 35 155 3 10 119 12 551 10 l547
-3 18 -75z m-2005 -627 c-3 -21 -13 -116 -22 -210 l-17 -173 -569 0 c-312 0
-568 1 -569 3 0 1 -11 95 -23 210 l-22 207 614 0 614 0 -6 -37z m2050 20 c-2
-10 -12 -105 -22 -210 l-18 -193 -571 0 -572 0 -17 183 c-9 100 -19 194 -22
210 l-6 27 617 0 c582 0 616 -1 611 -17z m152 -1155 l-3 -603 -1785 0 -1785 0
-3 603 -2 602 1790 0 1790 0 -2 -602z"/>
<path d="M2036 3944 c-27 -27 -31 -63 -9 -92 l20 -27 511 -3 510 -2 21 26 c26
34 26 54 0 88 l-20 26 -509 0 c-449 0 -510 -2 -524 -16z"/>
</g>
</svg>
