<?xml version="1.0" encoding="utf-8"?>
<!-- Generator: Adobe Illustrator 27.3.1, SVG Export Plug-In . SVG Version: 6.00 Build 0)  -->
<svg version="1.1" id="Layer_1" xmlns="http://www.w3.org/2000/svg" xmlns:xlink="http://www.w3.org/1999/xlink" x="0px" y="0px"
	 viewBox="0 0 800 800" style="enable-background:new 0 0 800 800;" xml:space="preserve">
<style type="text/css">
	.st0{fill:#FFFFFF;}
</style>
<path class="st0" d="M540.2,198c13.7,0,24.8,10.9,25.2,24.5c0,0.5,0,1-0.1,1.4l-45.6,501.2c0,0.3,0,0.5,0,0.8
	c-0.2,13.7-11.4,24.8-25.2,24.8H233.1c-13.8,0-25-11.1-25.2-24.8c0-0.3,0-0.5,0-0.8l-45.5-501.2c0-0.5-0.1-1-0.1-1.4
	c0.4-13.6,11.5-24.5,25.2-24.5h215c5.9,0,11-4.2,12.2-10l23.5-120c0.7-3.7,3.1-6.9,6.5-8.7l90.7-46.6c9.6-4.9,20.5,3.9,17.7,14.3
	l0,0c-0.9,3.4-3.3,6.3-6.4,7.9l-79.4,39.8c-3.4,1.7-5.9,5-6.6,8.7l-19.4,99.8c-1.5,7.7,4.4,14.8,12.2,14.8L540.2,198L540.2,198z
	 M325.4,690.4c-7.9,0-13.8-7.3-12.2-15.1l91.3-437.2c1.6-7.7-4.3-15-12.2-15H201.1c-7.3,0-13,6.3-12.4,13.5l43.4,477.5
	c0.6,6.4,5.9,11.3,12.4,11.3h238.7c6.4,0,11.8-4.9,12.4-11.3L539,236.8c0.7-7.3-5.1-13.5-12.4-13.5h-83.4c-5.9,0-11,4.1-12.2,9.9
	l-93.3,447.2C336.5,686.2,331.3,690.4,325.4,690.4L325.4,690.4z"/>
</svg>
